<svg width="20" height="20" viewBox="0 0 20 20" fill="none" xmlns="http://www.w3.org/2000/svg">
<g clip-path="url(#clip0_9_84)">
<path d="M14.6773 12.93C15.8876 11.2784 16.4298 9.23062 16.1952 7.19644C15.9606 5.16226 14.9665 3.29168 13.412 1.95892C11.8574 0.626155 9.85696 -0.070492 7.81082 0.00834944C5.76468 0.0871909 3.82376 0.935706 2.37636 2.38414C0.928969 3.83257 0.0818427 5.7741 0.00446539 7.8203C-0.0729119 9.86649 0.625166 11.8665 1.95904 13.4201C3.29291 14.9737 5.16421 15.9663 7.19855 16.1995C9.23289 16.4326 11.2803 15.8891 12.931 14.6775H12.9298C12.9673 14.7275 13.0073 14.775 13.0523 14.8213L17.8648 19.6338C18.0992 19.8683 18.4171 20.0001 18.7487 20.0003C19.0803 20.0004 19.3984 19.8688 19.6329 19.6344C19.8675 19.4 19.9993 19.082 19.9994 18.7504C19.9995 18.4189 19.8679 18.1008 19.6335 17.8663L14.821 13.0538C14.7763 13.0085 14.7283 12.968 14.6773 12.93ZM14.9998 8.125C14.9998 9.02784 14.822 9.92184 14.4764 10.756C14.1309 11.5901 13.6245 12.348 12.9861 12.9864C12.3477 13.6248 11.5898 14.1312 10.7557 14.4767C9.92161 14.8222 9.02762 15 8.12478 15C7.22194 15 6.32794 14.8222 5.49383 14.4767C4.65972 14.1312 3.90182 13.6248 3.26342 12.9864C2.62502 12.348 2.11861 11.5901 1.77311 10.756C1.42761 9.92184 1.24978 9.02784 1.24978 8.125C1.24978 6.30164 1.97411 4.55296 3.26342 3.26364C4.55273 1.97433 6.30142 1.25 8.12478 1.25C9.94814 1.25 11.6968 1.97433 12.9861 3.26364C14.2754 4.55296 14.9998 6.30164 14.9998 8.125Z" fill="black"/>
</g>
<defs>
<clipPath id="clip0_9_84">
<rect width="20" height="20" fill="white"/>
</clipPath>
</defs>
</svg>
