<svg width="18" height="18" viewBox="0 0 18 18" fill="none" xmlns="http://www.w3.org/2000/svg">
<g clip-path="url(#clip0_73_508)">
<path d="M14.25 3C14.6478 3 15.0294 3.15804 15.3107 3.43934C15.592 3.72064 15.75 4.10218 15.75 4.5V13.5C15.75 13.8978 15.592 14.2794 15.3107 14.5607C15.0294 14.842 14.6478 15 14.25 15H3.75C3.35218 15 2.97064 14.842 2.68934 14.5607C2.40804 14.2794 2.25 13.8978 2.25 13.5V4.5C2.25 4.10218 2.40804 3.72064 2.68934 3.43934C2.97064 3.15804 3.35218 3 3.75 3H14.25ZM14.25 7.5H3.75V12.75C3.75002 12.9337 3.81747 13.111 3.93954 13.2483C4.06161 13.3856 4.22981 13.4733 4.41225 13.4948L4.5 13.5H13.5C13.6837 13.5 13.861 13.4325 13.9983 13.3105C14.1356 13.1884 14.2233 13.0202 14.2448 12.8378L14.25 12.75V7.5ZM4.5 4.5C4.30109 4.5 4.11032 4.57902 3.96967 4.71967C3.82902 4.86032 3.75 5.05109 3.75 5.25C3.75 5.44891 3.82902 5.63968 3.96967 5.78033C4.11032 5.92098 4.30109 6 4.5 6C4.69891 6 4.88968 5.92098 5.03033 5.78033C5.17098 5.63968 5.25 5.44891 5.25 5.25C5.25 5.05109 5.17098 4.86032 5.03033 4.71967C4.88968 4.57902 4.69891 4.5 4.5 4.5ZM6.75 4.5C6.55109 4.5 6.36032 4.57902 6.21967 4.71967C6.07902 4.86032 6 5.05109 6 5.25C6 5.44891 6.07902 5.63968 6.21967 5.78033C6.36032 5.92098 6.55109 6 6.75 6C6.94891 6 7.13968 5.92098 7.28033 5.78033C7.42098 5.63968 7.5 5.44891 7.5 5.25C7.5 5.05109 7.42098 4.86032 7.28033 4.71967C7.13968 4.57902 6.94891 4.5 6.75 4.5ZM9 4.5C8.80109 4.5 8.61032 4.57902 8.46967 4.71967C8.32902 4.86032 8.25 5.05109 8.25 5.25C8.25 5.44891 8.32902 5.63968 8.46967 5.78033C8.61032 5.92098 8.80109 6 9 6C9.19891 6 9.38968 5.92098 9.53033 5.78033C9.67098 5.63968 9.75 5.44891 9.75 5.25C9.75 5.05109 9.67098 4.86032 9.53033 4.71967C9.38968 4.57902 9.19891 4.5 9 4.5Z" fill="#53399D"/>
</g>
<defs>
<clipPath id="clip0_73_508">
<rect width="18" height="18" fill="white"/>
</clipPath>
</defs>
</svg>
