<svg width="38" height="38" viewBox="0 0 38 38" fill="none" xmlns="http://www.w3.org/2000/svg">
<path d="M6.33336 33.2498C5.46252 33.2498 4.71677 32.9395 4.09611 32.3188C3.47544 31.6982 3.16563 30.953 3.16669 30.0832V12.6665C3.16669 11.7957 3.47702 11.0499 4.09769 10.4293C4.71836 9.80859 5.46358 9.49879 6.33336 9.49984H12.6667V6.33317C12.6667 5.46234 12.977 4.71659 13.5977 4.09592C14.2184 3.47526 14.9636 3.16545 15.8334 3.16651H22.1667C23.0375 3.16651 23.7833 3.47684 24.4039 4.09751C25.0246 4.71817 25.3344 5.4634 25.3334 6.33317V9.49984H31.6667C32.5375 9.49984 33.2833 9.81017 33.9039 10.4308C34.5246 11.0515 34.8344 11.7967 34.8334 12.6665V30.0832C34.8334 30.954 34.523 31.6998 33.9024 32.3204C33.2817 32.9411 32.5365 33.2509 31.6667 33.2498H6.33336ZM15.8334 9.49984H22.1667V6.33317H15.8334V9.49984Z" fill="#4B75C5"/>
</svg>
