<svg width="38" height="38" viewBox="0 0 38 38" fill="none" xmlns="http://www.w3.org/2000/svg">
<path d="M14.25 18.2083H23.75C23.9749 18.2083 24.1627 18.1323 24.3137 17.9803C24.4657 17.8283 24.5417 17.6399 24.5417 17.4151C24.5417 17.1902 24.4657 17.0024 24.3137 16.8514C24.1627 16.7005 23.9749 16.625 23.75 16.625H14.25C14.0252 16.625 13.8373 16.701 13.6864 16.853C13.5344 17.005 13.4584 17.1934 13.4584 17.4183C13.4584 17.6431 13.5344 17.831 13.6864 17.9819C13.8373 18.1329 14.0252 18.2083 14.25 18.2083ZM14.25 11.875H23.75C23.9749 11.875 24.1627 11.799 24.3137 11.647C24.4657 11.495 24.5417 11.3066 24.5417 11.0818C24.5417 10.8569 24.4657 10.669 24.3137 10.5181C24.1627 10.3671 23.9749 10.2917 23.75 10.2917H14.25C14.0252 10.2917 13.8373 10.3677 13.6864 10.5197C13.5344 10.6717 13.4584 10.8601 13.4584 11.0849C13.4584 11.3098 13.5344 11.4976 13.6864 11.6486C13.8373 11.7995 14.0252 11.875 14.25 11.875ZM29.944 31.5669L24.5227 24.5591C24.1427 24.0503 23.684 23.6561 23.1468 23.3763C22.6084 23.0977 22.0179 22.9583 21.375 22.9583H7.91669V7.30708C7.91669 6.57875 8.16105 5.97075 8.64977 5.48308C9.13744 4.99436 9.74544 4.75 10.4738 4.75H27.5263C28.2546 4.75 28.8626 4.99436 29.3503 5.48308C29.839 5.97075 30.0834 6.57875 30.0834 7.30708V30.6929C30.0834 30.8534 30.0717 31.0064 30.0485 31.1521C30.0253 31.2967 29.9905 31.435 29.944 31.5669ZM10.4738 33.25C9.74544 33.25 9.13744 33.0062 8.64977 32.5185C8.16105 32.0298 7.91669 31.4213 7.91669 30.6929V24.5417H21.375C21.7624 24.5417 22.1202 24.6277 22.4485 24.7998C22.7779 24.9729 23.0586 25.2125 23.2909 25.5186L28.8753 32.8272C28.6821 32.9613 28.472 33.0653 28.2451 33.1392C28.0192 33.2131 27.7796 33.25 27.5263 33.25H10.4738Z" fill="#4B75C5"/>
</svg>
